# xmcd
#
# Track frame offsets:
#	150
#	24917
#	55923
#	85808
#	113981
#	142592
#	166405
#	188032
#	210919
#	230611
#
# Disc length: 3499 seconds
#
# Revision: 1
# Processed by: cddbd v1.4PL0 Copyright (c) Steve Scherf et al.
# Submitted via: audiograbber 1.81.02
#
DISCID=750da90a
DTITLE=Cyril Lance - Stranger in my House
DYEAR=2003
DGENRE=Blues
TTITLE0=I Want the Real Thing
TTITLE1=I Went Down
TTITLE2=Just Not Ready
TTITLE3=Hot Tamale Baby
TTITLE4=Stranger in My House
TTITLE5=Same Thing
TTITLE6=Light of this World
TTITLE7=When I First Met You
TTITLE8=Catfish Pie
TTITLE9=Remembering Jon
EXTD=
EXTT0=
EXTT1=
EXTT2=
EXTT3=
EXTT4=
EXTT5=
EXTT6=
EXTT7=
EXTT8=
EXTT9=
PLAYORDER=
